<svg width="12" height="13" viewBox="0 0 12 13" fill="none" xmlns="http://www.w3.org/2000/svg">
<path fill-rule="evenodd" clip-rule="evenodd" d="M11 6.5C11 9.26142 8.76142 11.5 6 11.5C3.23858 11.5 1 9.26142 1 6.5C1 3.73858 3.23858 1.5 6 1.5C8.76142 1.5 11 3.73858 11 6.5ZM12 6.5C12 9.81371 9.31371 12.5 6 12.5C2.68629 12.5 0 9.81371 0 6.5C0 3.18629 2.68629 0.5 6 0.5C9.31371 0.5 12 3.18629 12 6.5ZM5.85355 4.85355C6.04882 4.65829 6.04882 4.34171 5.85355 4.14645C5.65829 3.95118 5.34171 3.95118 5.14645 4.14645L3.14645 6.14645C2.95118 6.34171 2.95118 6.65829 3.14645 6.85355L5.14645 8.85355C5.34171 9.04882 5.65829 9.04882 5.85355 8.85355C6.04882 8.65829 6.04882 8.34171 5.85355 8.14645L4.70711 7H8.5C8.77614 7 9 6.77614 9 6.5C9 6.22386 8.77614 6 8.5 6H4.70711L5.85355 4.85355Z" fill="white"/>
</svg>
