<svg width="20" height="20" viewBox="0 0 20 20" fill="none" xmlns="http://www.w3.org/2000/svg">
<path fill-rule="evenodd" clip-rule="evenodd" d="M17.469 15.023C18.4357 13.5884 19 11.8601 19 10C19 5.02944 14.9706 1 10 1C5.02944 1 1 5.02944 1 10C1 11.8601 1.56427 13.5883 2.53098 15.023C3.69359 13.3714 5.27792 12.2506 7.01295 11.6604C6.38288 10.9535 6 10.0215 6 9C6 6.79086 7.79086 5 10 5C12.2091 5 14 6.79086 14 9C14 10.0215 13.6171 10.9535 12.987 11.6604C14.7221 12.2506 16.3064 13.3714 17.469 15.023ZM16.8293 15.862C15.6538 14.0528 13.9306 12.9082 12.062 12.4282C11.4599 12.7912 10.7543 13 10 13C9.24567 13 8.54012 12.7912 7.93797 12.4282C6.06941 12.9082 4.34617 14.0528 3.17068 15.862C4.82124 17.7832 7.26852 19 10 19C12.7315 19 15.1787 17.7832 16.8293 15.862ZM10 20C15.5228 20 20 15.5228 20 10C20 4.47715 15.5228 0 10 0C4.47715 0 0 4.47715 0 10C0 15.5228 4.47715 20 10 20Z" fill="white"/>
</svg>
