<svg width="60" height="60" viewBox="0 0 60 60" fill="none" xmlns="http://www.w3.org/2000/svg">
<path d="M2.93333 22.7667C3.24444 21.6 3.63333 20.4333 4.1 19.3444C6.43333 19.8111 9.23333 20.0444 12.4222 20.0444C15.8444 20.0444 19.7333 19.7333 24.0111 18.9556C24.4778 18.8778 24.8667 18.8 25.3333 18.7222C25.8 19.8111 26.7333 20.5889 27.9778 20.7444C28.0556 21.2889 28.1333 21.9889 28.2889 22.6889C27.4333 23 26.7333 23.7 26.4222 24.5556C24.7889 24.3222 23.3111 24.1667 21.8333 24.0111C12.9667 22.9222 6.2 22.7667 2.93333 22.7667ZM11.6444 39.7222C13.9 41.5111 16.8556 43.6111 20.5111 45.6333C21.1333 44.9333 21.9889 44.4667 23 44.4667C23.0778 44.4667 23.0778 44.4667 23.1556 44.4667C24.4 41.0444 26.2667 37.5444 28.9889 34.3556C28.7556 33.8889 28.6 33.4222 28.6 32.8778C28.6 31.7111 29.3 30.6222 30.2333 30.0778C30.0778 29.6111 29.9222 29.2222 29.7667 28.7556C29.6111 28.7556 29.5333 28.7556 29.3778 28.7556C27.6667 28.7556 26.2667 27.3556 26.1889 25.6444C24.6333 25.4111 23.0778 25.2556 21.6778 25.1C12.5 24.0889 5.65556 23.9333 2.62222 23.9333C2.23333 25.8 2 27.5889 2 29.5333C3.71111 32.1778 6.97778 35.9889 11.6444 39.7222ZM25.1 17.4778C25.1 15.6889 26.5778 14.2889 28.2889 14.2889C29.5333 14.2889 30.5444 14.9889 31.0889 16C33.2667 15.3778 35.4444 14.6 37.6222 13.7444C37.6222 13.5889 37.5444 13.4333 37.5444 13.2C37.5444 13.0444 37.5444 12.8889 37.6222 12.6556C34.8222 11.5667 32.2556 10.7889 30.3111 10.2444C23.7 8.45556 17.1667 7.75556 12.3444 8.22222C9.07778 10.8667 6.43333 14.2111 4.64444 18.1C9.77778 19.0333 17.0111 19.1111 25.1 17.4778ZM45.4 52.2444C42.6778 49.9111 40.2667 47.3444 38.0889 44.5444C35.9889 41.9 34.2 39.0222 32.7222 35.9889C32.4111 36.0667 32.1 36.1444 31.7889 36.1444C31.0111 36.1444 30.3111 35.9111 29.7667 35.4444C27.2 38.4 25.4889 41.6667 24.3222 44.8556C25.4111 45.4 26.1889 46.4889 26.1889 47.7333C26.1889 47.9667 26.1889 48.1222 26.1111 48.3556C31.6333 50.5333 38.0889 52.1667 45.4 52.2444ZM52.2444 31.0889C51.7778 32.1778 50.6111 33.0333 49.2889 33.0333C47.5 33.0333 46.1 31.6333 46.1 29.8444C46.1 29.7667 46.1 29.6111 46.1 29.5333C41.2 28.3667 36.6111 27.4333 32.3333 26.7333C32.1 27.4333 31.5556 28.0556 30.9333 28.4444C31.0889 28.9111 31.2444 29.3 31.4 29.7667C31.5556 29.7667 31.6333 29.7667 31.7889 29.7667C33.5778 29.7667 34.9778 31.1667 34.9778 32.9556C34.9778 33.9667 34.5111 34.8222 33.8111 35.4444C36.3778 40.6556 40.5778 46.7222 47.1111 52.1667C53.0222 47.5778 57.0667 40.6556 57.7667 32.8C55.9778 32.1 54.1111 31.5556 52.2444 31.0889ZM21.5222 50.5333C20.5111 49.9889 19.8111 48.9 19.8111 47.7333C19.8111 47.4222 19.8889 47.1111 19.9667 46.8C16.2333 44.7778 13.2 42.6 10.8667 40.7333C7.05555 37.7 4.02222 34.5111 2 31.7889C2.77778 43.2222 10.4 52.7889 20.7444 56.4444C20.9 54.6556 21.0556 52.6333 21.5222 50.5333ZM25.6444 49.4444C25.1 50.3 24.0889 50.8444 23 50.8444C22.9222 50.8444 22.7667 50.8444 22.6889 50.8444C22.3 53.0222 22.0667 55.0444 21.9889 56.7556C24.5556 57.5333 27.2 57.9222 30 57.9222C35.6 57.9222 40.8889 56.2889 45.2444 53.4111C37.7778 53.4111 31.2444 51.7 25.6444 49.4444ZM57.5333 25.2556C53.1778 20.8222 48.0444 17.5556 43.3 15.2222C42.6778 15.9222 41.8222 16.4667 40.8111 16.4667C39.6444 16.4667 38.6333 15.8444 38.0889 14.9111C35.8333 15.8444 33.5778 16.6222 31.4778 17.2444C31.4778 17.3222 31.4778 17.4778 31.4778 17.5556C31.4778 19.0333 30.5444 20.2 29.2222 20.5889C29.3 21.1333 29.3778 21.7556 29.5333 22.4556C31.1667 22.5333 32.5667 23.8556 32.6444 25.4889C36.9222 26.1889 41.5889 27.1222 46.5667 28.3667C47.1111 27.3556 48.2 26.6556 49.3667 26.6556C51.1556 26.6556 52.5556 28.0556 52.5556 29.8444V29.9222C54.3444 30.3889 56.1333 30.9333 57.9222 31.4778C57.9222 31.0111 57.9222 30.5444 57.9222 30C58 28.3667 57.8444 26.8111 57.5333 25.2556ZM44 13.2C44 13.5111 43.9222 13.8222 43.8444 14.0556C48.2778 16.2333 52.8667 19.1889 57.0667 23.0778C55.6667 17.7111 52.7889 12.9667 48.8222 9.31111C47.1111 10.4 45.4778 11.3333 43.7667 12.1889C43.9222 12.5 44 12.8889 44 13.2ZM30.6222 9.07778C32.6444 9.62222 35.2111 10.4 38.0889 11.4889C38.6333 10.5556 39.6444 9.93333 40.8111 9.93333C41.8222 9.93333 42.6778 10.4 43.2222 11.1C44.7778 10.3222 46.3333 9.38889 47.8889 8.45556C43.0667 4.41111 36.7667 2 30 2C24.0889 2 18.6444 3.78889 14.1333 6.9C18.8 6.74444 24.6333 7.52222 30.6222 9.07778Z" fill="#A1234F"/>
</svg>
