<svg width="119" height="40" viewBox="0 0 119 40" fill="none" xmlns="http://www.w3.org/2000/svg">
<path fill-rule="evenodd" clip-rule="evenodd" d="M35.6049 37.2327C35.598 37.7332 35.3931 38.2107 35.035 38.5605C34.6768 38.9104 34.1946 39.1042 33.6939 39.0996H1.90229C1.65476 39.1018 1.40919 39.0554 1.17962 38.9628C0.950053 38.8702 0.740981 38.7333 0.564335 38.56C0.387689 38.3866 0.246933 38.1802 0.150103 37.9525C0.0532734 37.7247 0.0022709 37.4802 0 37.2327V1.85824C0.00686941 1.36002 0.210866 0.884809 0.56737 0.536575C0.923874 0.188341 1.40386 -0.0045569 1.90229 8.27083e-05H33.6939C34.1932 -0.00457969 34.6741 0.188043 35.032 0.536039C35.3898 0.884034 35.5957 1.35924 35.6049 1.85824V37.2327Z" fill="#A1234F"/>
<path fill-rule="evenodd" clip-rule="evenodd" d="M11.4392 14.9606V16.7579H20.3426V22.3411H11.4392V29.1659H30.549V34.1326H5.08089V4.96645H30.5142V9.93312H11.4045V14.9606H11.4392ZM13.3502 11.7913H30.7227C30.9585 11.8005 31.1936 11.7598 31.4126 11.6719C31.6316 11.584 31.8296 11.4508 31.9936 11.2812C32.1576 11.1115 32.2839 10.9091 32.3643 10.6873C32.4446 10.4655 32.4772 10.2292 32.4599 9.9939V5.02723C32.4789 4.78525 32.4483 4.54194 32.3702 4.31213C32.2921 4.08231 32.168 3.8708 32.0054 3.69046C31.8429 3.51013 31.6454 3.36474 31.4248 3.26316C31.2043 3.16159 30.9654 3.10594 30.7227 3.09961H5.26331C4.73729 3.10393 4.23168 3.30365 3.84478 3.65991C3.45788 4.01618 3.21733 4.50353 3.16992 5.02723V34.202C3.22265 34.7125 3.46906 35.1832 3.85845 35.5176C4.24784 35.8519 4.7506 36.0243 5.26331 35.9994H30.6966C30.9321 36.0072 31.1666 35.9656 31.385 35.8772C31.6034 35.7889 31.8008 35.6557 31.9645 35.4863C32.1282 35.3169 32.2545 35.1151 32.3354 34.8939C32.4162 34.6727 32.4498 34.437 32.4339 34.202V29.2354C32.4528 28.9934 32.4223 28.7501 32.3441 28.5203C32.266 28.2905 32.1419 28.0789 31.9794 27.8986C31.8169 27.7183 31.6193 27.5729 31.3988 27.4713C31.1783 27.3697 30.9394 27.3141 30.6966 27.3078H13.3241V24.2079H20.499C20.7344 24.2158 20.9689 24.1741 21.1873 24.0858C21.4057 23.9974 21.6031 23.8642 21.7668 23.6948C21.9305 23.5255 22.0569 23.3237 22.1377 23.1024C22.2186 22.8812 22.2521 22.6455 22.2362 22.4106V16.8187C22.2552 16.5767 22.2246 16.3334 22.1465 16.1036C22.0684 15.8738 21.9443 15.6623 21.7817 15.482C21.6192 15.3016 21.4217 15.1562 21.2011 15.0547C20.9806 14.9531 20.7417 14.8974 20.499 14.8911H13.3241V11.7565L13.3502 11.7913Z" fill="white"/>
<path d="M46.3105 28.5374H51.1827L55.2189 16.8784L59.2838 28.5374H64.156L70.9021 8.14135H65.1074L61.5902 19.8582L57.6982 8.08349H52.8837L48.9917 19.8582L45.4745 8.14135H39.5645L46.3105 28.5374Z" fill="#A1234F"/>
<path d="M89.7588 28.3927H95.2364V23.5324C95.2364 19.9161 96.8508 18.267 99.705 18.267H100.166V12.4809C97.5716 12.3652 96.1301 13.7539 95.2364 15.8947V12.7413H89.7588V28.3927Z" fill="#A1234F"/>
<path d="M102.09 28.3927H107.568V24.7185L108.98 23.0695L112.123 28.3927H118.148L112.584 19.0192L118.004 12.7413H111.806L107.568 17.9777V7.27344H102.09V28.3927Z" fill="#A1234F"/>
<path d="M40.3897 31.6191L41.8818 34.0213H41.927L43.4191 31.6191H44.2443L42.4244 34.5062L44.2443 37.3934H43.4191L41.927 35.0363H41.8818L40.3897 37.3934H39.5645L41.4296 34.5062L39.5645 31.6191H40.3897Z" fill="#656565"/>
<path d="M46.6606 37.4836C46.2423 37.4836 45.8816 37.3915 45.5782 37.2073C45.2768 37.0212 45.0441 36.7618 44.8802 36.4291C44.7182 36.0946 44.6372 35.7055 44.6372 35.2619C44.6372 34.8183 44.7182 34.4273 44.8802 34.089C45.0441 33.7487 45.2721 33.4837 45.5641 33.2939C45.858 33.1021 46.2009 33.0063 46.5928 33.0063C46.8189 33.0063 47.0421 33.0439 47.2625 33.1191C47.483 33.1942 47.6836 33.3164 47.8645 33.4856C48.0453 33.6529 48.1895 33.8747 48.2969 34.151C48.4043 34.4273 48.4579 34.7675 48.4579 35.1716V35.4536H45.1119V34.8784H47.7797C47.7797 34.6341 47.7307 34.416 47.6327 34.2243C47.5367 34.0326 47.3991 33.8813 47.2201 33.7704C47.043 33.6595 46.8339 33.604 46.5928 33.604C46.3271 33.604 46.0973 33.6698 45.9032 33.8014C45.7111 33.9311 45.5632 34.1002 45.4595 34.3089C45.3559 34.5175 45.3041 34.7412 45.3041 34.9799V35.3634C45.3041 35.6904 45.3606 35.9677 45.4737 36.1951C45.5886 36.4207 45.7478 36.5927 45.9513 36.7111C46.1547 36.8276 46.3912 36.8859 46.6606 36.8859C46.8358 36.8859 46.9941 36.8615 47.1354 36.8126C47.2786 36.7618 47.402 36.6867 47.5056 36.587C47.6092 36.4855 47.6893 36.3596 47.7458 36.2092L48.3901 36.3897C48.3223 36.6077 48.2083 36.7994 48.0482 36.9648C47.888 37.1284 47.6902 37.2562 47.4547 37.3483C47.2192 37.4385 46.9545 37.4836 46.6606 37.4836Z" fill="#656565"/>
<path d="M49.4725 37.3934V33.0627H50.1168V33.7393H50.1733C50.2638 33.5081 50.4098 33.3286 50.6114 33.2008C50.813 33.0711 51.0551 33.0063 51.3377 33.0063C51.624 33.0063 51.8624 33.0711 52.0526 33.2008C52.2448 33.3286 52.3946 33.5081 52.502 33.7393H52.5472C52.6584 33.5157 52.8251 33.338 53.0474 33.2065C53.2697 33.073 53.5363 33.0063 53.8472 33.0063C54.2353 33.0063 54.5527 33.1275 54.7995 33.37C55.0463 33.6106 55.1697 33.9856 55.1697 34.495V37.3934H54.5028V34.495C54.5028 34.1754 54.4152 33.947 54.24 33.8098C54.0648 33.6726 53.8585 33.604 53.6211 33.604C53.3159 33.604 53.0794 33.6961 52.9118 33.8803C52.7441 34.0626 52.6602 34.2938 52.6602 34.5739V37.3934H51.982V34.4273C51.982 34.1811 51.9019 33.9828 51.7418 33.8324C51.5816 33.6801 51.3753 33.604 51.1229 33.604C50.9496 33.604 50.7875 33.6501 50.6368 33.7422C50.488 33.8343 50.3674 33.9621 50.2751 34.1256C50.1846 34.2873 50.1394 34.4743 50.1394 34.6867V37.3934H49.4725Z" fill="#656565"/>
<path d="M59.2943 34.7882V37.3934H58.6274V33.0627H59.2717V33.7393H59.3282C59.43 33.5194 59.5845 33.3427 59.7917 33.2093C59.9989 33.0739 60.2665 33.0063 60.5943 33.0063C60.8882 33.0063 61.1454 33.0664 61.3658 33.1867C61.5862 33.3051 61.7577 33.4856 61.8801 33.7281C62.0026 33.9687 62.0638 34.2732 62.0638 34.6416V37.3934H61.3969V34.6867C61.3969 34.3465 61.3083 34.0814 61.1312 33.8916C60.9541 33.6999 60.7111 33.604 60.4021 33.604C60.1892 33.604 59.9989 33.6501 59.8313 33.7422C59.6655 33.8343 59.5345 33.9687 59.4385 34.1454C59.3424 34.322 59.2943 34.5363 59.2943 34.7882Z" fill="#656565"/>
<path d="M63.9495 34.7882V37.3934H63.2826V31.6191H63.9495V33.7393H64.006C64.1077 33.5157 64.2604 33.338 64.4638 33.2065C64.6692 33.073 64.9424 33.0063 65.2834 33.0063C65.5792 33.0063 65.8382 33.0655 66.0605 33.1839C66.2828 33.3004 66.4552 33.48 66.5777 33.7224C66.702 33.963 66.7642 34.2694 66.7642 34.6416V37.3934H66.0973V34.6867C66.0973 34.3427 66.0078 34.0767 65.8288 33.8888C65.6517 33.6989 65.4058 33.604 65.0912 33.604C64.8727 33.604 64.6767 33.6501 64.5034 33.7422C64.3319 33.8343 64.1963 33.9687 64.0964 34.1454C63.9985 34.322 63.9495 34.5363 63.9495 34.7882Z" fill="#656565"/>
<path d="M69.2617 37.4949C68.9866 37.4949 68.737 37.4432 68.5128 37.3398C68.2886 37.2346 68.1106 37.0833 67.9787 36.8859C67.8468 36.6867 67.7809 36.4461 67.7809 36.1641C67.7809 35.916 67.8299 35.7149 67.9278 35.5607C68.0258 35.4047 68.1567 35.2825 68.3206 35.1942C68.4846 35.1059 68.6654 35.0401 68.8632 34.9968C69.0629 34.9517 69.2636 34.916 69.4652 34.8897C69.7289 34.8559 69.9428 34.8305 70.1067 34.8136C70.2725 34.7948 70.3931 34.7638 70.4684 34.7205C70.5457 34.6773 70.5843 34.6021 70.5843 34.495V34.4724C70.5843 34.1942 70.508 33.9781 70.3554 33.8239C70.2047 33.6698 69.9757 33.5927 69.6687 33.5927C69.3503 33.5927 69.1006 33.6623 68.9198 33.8014C68.7389 33.9405 68.6117 34.089 68.5382 34.2469L67.9052 34.0213C68.0183 33.7581 68.169 33.5533 68.3574 33.4066C68.5477 33.2582 68.7549 33.1548 68.9791 33.0965C69.2052 33.0364 69.4275 33.0063 69.646 33.0063C69.7855 33.0063 69.9456 33.0232 70.1265 33.057C70.3092 33.089 70.4854 33.1557 70.6549 33.2572C70.8264 33.3587 70.9686 33.5119 71.0817 33.7168C71.1947 33.9217 71.2512 34.1961 71.2512 34.5401V37.3934H70.5843V36.807H70.5504C70.5052 36.9009 70.4298 37.0015 70.3243 37.1086C70.2188 37.2158 70.0784 37.3069 69.9032 37.3821C69.728 37.4573 69.5142 37.4949 69.2617 37.4949ZM69.3634 36.8972C69.6272 36.8972 69.8495 36.8455 70.0304 36.7421C70.2131 36.6387 70.3507 36.5053 70.443 36.3417C70.5372 36.1782 70.5843 36.0062 70.5843 35.8258V35.2168C70.556 35.2506 70.4939 35.2816 70.3978 35.3098C70.3036 35.3361 70.1943 35.3596 70.0699 35.3803C69.9475 35.3991 69.8279 35.416 69.711 35.431C69.5961 35.4442 69.5029 35.4555 69.4313 35.4649C69.2579 35.4874 69.0959 35.5241 68.9452 35.5748C68.7964 35.6237 68.6758 35.698 68.5835 35.7976C68.493 35.8953 68.4478 36.0288 68.4478 36.1979C68.4478 36.4291 68.5335 36.6039 68.705 36.7224C68.8783 36.8389 69.0978 36.8972 69.3634 36.8972Z" fill="#656565"/>
<path d="M73.1355 34.7882V37.3934H72.4685V33.0627H73.1129V33.7393H73.1694C73.2711 33.5194 73.4256 33.3427 73.6329 33.2093C73.8401 33.0739 74.1076 33.0063 74.4355 33.0063C74.7294 33.0063 74.9865 33.0664 75.207 33.1867C75.4274 33.3051 75.5988 33.4856 75.7213 33.7281C75.8438 33.9687 75.905 34.2732 75.905 34.6416V37.3934H75.238V34.6867C75.238 34.3465 75.1495 34.0814 74.9724 33.8916C74.7953 33.6999 74.5523 33.604 74.2433 33.604C74.0304 33.604 73.8401 33.6501 73.6724 33.7422C73.5066 33.8343 73.3757 33.9687 73.2796 34.1454C73.1835 34.322 73.1355 34.5363 73.1355 34.7882Z" fill="#656565"/>
<path d="M77.7906 34.7882V37.3934H77.1237V31.6191H77.7906V33.7393H77.8472C77.9489 33.5157 78.1015 33.338 78.305 33.2065C78.5103 33.073 78.7835 33.0063 79.1245 33.0063C79.4203 33.0063 79.6794 33.0655 79.9017 33.1839C80.124 33.3004 80.2964 33.48 80.4188 33.7224C80.5432 33.963 80.6054 34.2694 80.6054 34.6416V37.3934H79.9384V34.6867C79.9384 34.3427 79.8489 34.0767 79.6699 33.8888C79.4928 33.6989 79.247 33.604 78.9324 33.604C78.7138 33.604 78.5179 33.6501 78.3445 33.7422C78.1731 33.8343 78.0374 33.9687 77.9376 34.1454C77.8396 34.322 77.7906 34.5363 77.7906 34.7882Z" fill="#656565"/>
<path d="M82.8203 36.6039L82.775 36.9085C82.743 37.1227 82.694 37.3521 82.6281 37.5964C82.564 37.8408 82.4971 38.071 82.4274 38.2872C82.3577 38.5033 82.3003 38.6753 82.2551 38.8032H81.7464C81.7709 38.6829 81.8029 38.524 81.8425 38.3267C81.882 38.1293 81.9216 37.9084 81.9611 37.6641C82.0026 37.4216 82.0365 37.1735 82.0629 36.9197L82.0968 36.6039H82.8203Z" fill="#656565"/>
<path d="M88.1819 33.0627V33.6266H85.9324V33.0627H88.1819ZM86.5881 32.0251H87.255V36.1528C87.255 36.3408 87.2823 36.4818 87.3369 36.5758C87.3935 36.6679 87.4651 36.7299 87.5517 36.7618C87.6403 36.7919 87.7335 36.807 87.8315 36.807C87.905 36.807 87.9653 36.8032 88.0124 36.7957C88.0595 36.7863 88.0971 36.7788 88.1254 36.7731L88.2611 37.3708C88.2158 37.3878 88.1527 37.4047 88.0717 37.4216C87.9907 37.4404 87.888 37.4498 87.7637 37.4498C87.5753 37.4498 87.3906 37.4094 87.2098 37.3286C87.0308 37.2477 86.882 37.1246 86.7633 36.9592C86.6465 36.7938 86.5881 36.5852 86.5881 36.3333V32.0251Z" fill="#656565"/>
<path d="M89.1852 37.3934V33.0627H89.8521V37.3934H89.1852ZM89.2417 32.4762L88.36 31.168H89.1399L89.8295 32.4762H89.2417Z" fill="#656565"/>
<path d="M91.0737 37.3934V33.0627H91.718V33.7393H91.7745C91.8649 33.5081 92.0109 33.3286 92.2125 33.2008C92.4141 33.0711 92.6562 33.0063 92.9388 33.0063C93.2252 33.0063 93.4635 33.0711 93.6538 33.2008C93.846 33.3286 93.9958 33.5081 94.1031 33.7393H94.1484C94.2595 33.5157 94.4263 33.338 94.6486 33.2065C94.8709 33.073 95.1375 33.0063 95.4483 33.0063C95.8364 33.0063 96.1539 33.1275 96.4007 33.37C96.6475 33.6106 96.7709 33.9856 96.7709 34.495V37.3934H96.104V34.495C96.104 34.1754 96.0164 33.947 95.8411 33.8098C95.6659 33.6726 95.4596 33.604 95.2222 33.604C94.917 33.604 94.6806 33.6961 94.5129 33.8803C94.3452 34.0626 94.2614 34.2938 94.2614 34.5739V37.3934H93.5832V34.4273C93.5832 34.1811 93.5031 33.9828 93.3429 33.8324C93.1828 33.6801 92.9765 33.604 92.724 33.604C92.5507 33.604 92.3887 33.6501 92.238 33.7422C92.0891 33.8343 91.9686 33.9621 91.8762 34.1256C91.7858 34.2873 91.7406 34.4743 91.7406 34.6867V37.3934H91.0737Z" fill="#656565"/>
<path d="M101.868 37.4836C101.506 37.4836 101.187 37.3925 100.91 37.2101C100.633 37.0259 100.416 36.7665 100.26 36.432C100.103 36.0955 100.025 35.698 100.025 35.2393C100.025 34.7844 100.103 34.3897 100.26 34.0551C100.416 33.7205 100.634 33.4621 100.912 33.2798C101.191 33.0974 101.513 33.0063 101.879 33.0063C102.162 33.0063 102.385 33.0533 102.549 33.1473C102.715 33.2394 102.841 33.3446 102.927 33.463C103.016 33.5796 103.085 33.6754 103.134 33.7506H103.19V31.6191H103.857V37.3934H103.213V36.728H103.134C103.085 36.807 103.015 36.9066 102.925 37.0269C102.834 37.1453 102.705 37.2515 102.537 37.3455C102.37 37.4376 102.146 37.4836 101.868 37.4836ZM101.958 36.8859C102.226 36.8859 102.452 36.8163 102.636 36.6773C102.821 36.5363 102.961 36.3417 103.057 36.0936C103.153 35.8436 103.202 35.5551 103.202 35.228C103.202 34.9047 103.154 34.6218 103.06 34.3794C102.966 34.135 102.827 33.9452 102.642 33.8098C102.457 33.6726 102.229 33.604 101.958 33.604C101.675 33.604 101.44 33.6764 101.252 33.8211C101.065 33.964 100.925 34.1585 100.83 34.4047C100.738 34.6491 100.692 34.9235 100.692 35.228C100.692 35.5363 100.739 35.8164 100.833 36.0682C100.929 36.3182 101.071 36.5175 101.257 36.666C101.446 36.8126 101.679 36.8859 101.958 36.8859ZM101.992 32.6905V32.1717H104.479V32.6905H101.992Z" fill="#656565"/>
<path d="M107.907 35.6228V33.0627H108.574V37.3934H107.907V36.6603H107.862C107.76 36.8803 107.602 37.0673 107.387 37.2214C107.172 37.3737 106.901 37.4498 106.573 37.4498C106.302 37.4498 106.061 37.3906 105.85 37.2722C105.638 37.1519 105.473 36.9714 105.352 36.7308C105.232 36.4883 105.171 36.1829 105.171 35.8145V33.0627H105.838V35.7694C105.838 36.0852 105.927 36.337 106.104 36.525C106.283 36.713 106.511 36.807 106.788 36.807C106.954 36.807 107.122 36.7647 107.294 36.6801C107.467 36.5955 107.612 36.4658 107.729 36.291C107.848 36.1162 107.907 35.8934 107.907 35.6228ZM106.573 32.4762L107.263 31.168H108.043L107.161 32.4762H106.573Z" fill="#656565"/>
<path d="M110.462 34.7882V37.3934H109.795V33.0627H110.44V33.7393H110.496C110.598 33.5194 110.752 33.3427 110.96 33.2093C111.167 33.0739 111.434 33.0063 111.762 33.0063C112.056 33.0063 112.313 33.0664 112.534 33.1867C112.754 33.3051 112.926 33.4856 113.048 33.7281C113.171 33.9687 113.232 34.2732 113.232 34.6416V37.3934H112.565V34.6867C112.565 34.3465 112.476 34.0814 112.299 33.8916C112.122 33.6999 111.879 33.604 111.57 33.604C111.357 33.604 111.167 33.6501 110.999 33.7422C110.833 33.8343 110.702 33.9687 110.606 34.1454C110.51 34.322 110.462 34.5363 110.462 34.7882Z" fill="#656565"/>
<path d="M116.203 39.1077C115.88 39.1077 115.604 39.0663 115.372 38.9836C115.14 38.9028 114.947 38.7956 114.792 38.6622C114.64 38.5306 114.518 38.3896 114.428 38.2393L114.959 37.8671C115.019 37.946 115.096 38.0362 115.188 38.1378C115.28 38.2411 115.407 38.3304 115.567 38.4056C115.729 38.4827 115.941 38.5212 116.203 38.5212C116.553 38.5212 116.842 38.4366 117.07 38.2674C117.298 38.0983 117.412 37.8332 117.412 37.4724V36.5927H117.356C117.307 36.6716 117.237 36.7694 117.147 36.8859C117.058 37.0006 116.93 37.103 116.762 37.1932C116.596 37.2816 116.372 37.3257 116.09 37.3257C115.739 37.3257 115.425 37.243 115.146 37.0776C114.869 36.9122 114.649 36.6716 114.487 36.3558C114.327 36.04 114.247 35.6566 114.247 35.2055C114.247 34.7619 114.325 34.3756 114.482 34.0467C114.638 33.7158 114.856 33.4602 115.134 33.2798C115.413 33.0974 115.735 33.0063 116.101 33.0063C116.384 33.0063 116.608 33.0533 116.773 33.1473C116.941 33.2394 117.069 33.3446 117.158 33.463C117.248 33.5796 117.318 33.6754 117.367 33.7506H117.435V33.0627H118.079V37.5175C118.079 37.8896 117.994 38.1923 117.825 38.4253C117.657 38.6603 117.431 38.8323 117.147 38.9413C116.864 39.0522 116.549 39.1077 116.203 39.1077ZM116.18 36.728C116.448 36.728 116.674 36.6669 116.858 36.5447C117.043 36.4226 117.183 36.2468 117.279 36.0175C117.375 35.7882 117.423 35.5137 117.423 35.1942C117.423 34.8822 117.376 34.6068 117.282 34.3681C117.188 34.1294 117.049 33.9423 116.864 33.807C116.679 33.6717 116.451 33.604 116.18 33.604C115.897 33.604 115.662 33.6754 115.474 33.8183C115.287 33.9611 115.147 34.1529 115.052 34.3935C114.96 34.6341 114.914 34.901 114.914 35.1942C114.914 35.4949 114.961 35.7609 115.055 35.9921C115.151 36.2214 115.293 36.4019 115.479 36.5335C115.668 36.6632 115.901 36.728 116.18 36.728Z" fill="#656565"/>
<g clip-path="url(#clip0_626_37874)">
<path d="M70.2876 17.6166C70.3861 17.2473 70.5092 16.878 70.6569 16.5333C71.3956 16.681 72.2819 16.7549 73.2913 16.7549C74.3746 16.7549 75.6056 16.6564 76.9598 16.4102C77.1075 16.3856 77.2306 16.361 77.3783 16.3364C77.526 16.681 77.8215 16.9272 78.2154 16.9765C78.24 17.1488 78.2646 17.3704 78.3139 17.592C78.0431 17.6905 77.8215 17.9121 77.723 18.1829C77.206 18.109 76.7382 18.0598 76.2704 18.0105C73.4637 17.6659 71.3217 17.6166 70.2876 17.6166ZM73.0451 22.9839C73.7591 23.5501 74.6947 24.2149 75.8518 24.855C76.0488 24.6334 76.3196 24.4857 76.6397 24.4857C76.6643 24.4857 76.6643 24.4857 76.6889 24.4857C77.0829 23.4024 77.6738 22.2945 78.5355 21.2851C78.4616 21.1373 78.4124 20.9896 78.4124 20.8173C78.4124 20.448 78.634 20.1033 78.9294 19.9309C78.8802 19.7832 78.8309 19.6601 78.7817 19.5124C78.7324 19.5124 78.7078 19.5124 78.6586 19.5124C78.1169 19.5124 77.6738 19.0692 77.6491 18.5276C77.1567 18.4537 76.6643 18.4045 76.2212 18.3552C73.3159 18.0352 71.1493 17.9859 70.1892 17.9859C70.066 18.5768 69.9922 19.1431 69.9922 19.7586C70.5338 20.5957 71.5679 21.8021 73.0451 22.9839ZM77.3045 15.9424C77.3045 15.3762 77.7722 14.933 78.3139 14.933C78.7078 14.933 79.0279 15.1546 79.2002 15.4746C79.8896 15.2777 80.579 15.0315 81.2683 14.7607C81.2683 14.7114 81.2437 14.6622 81.2437 14.5883C81.2437 14.5391 81.2437 14.4898 81.2683 14.416C80.382 14.0713 79.5695 13.8251 78.954 13.6527C76.8613 13.0865 74.7932 12.8649 73.2667 13.0126C72.2326 13.8497 71.3956 14.9084 70.8293 16.1394C72.4542 16.4348 74.7439 16.4595 77.3045 15.9424ZM83.7304 26.9478C82.8687 26.2091 82.1054 25.3967 81.4161 24.5103C80.7513 23.6732 80.185 22.7623 79.7173 21.8021C79.6188 21.8267 79.5203 21.8513 79.4218 21.8513C79.1756 21.8513 78.954 21.7775 78.7817 21.6297C77.9692 22.5653 77.4276 23.5994 77.0582 24.6088C77.4029 24.7812 77.6491 25.1258 77.6491 25.5198C77.6491 25.5936 77.6491 25.6429 77.6245 25.7167C79.3726 26.4061 81.4161 26.9231 83.7304 26.9478ZM85.897 20.251C85.7493 20.5957 85.3799 20.8665 84.9614 20.8665C84.3951 20.8665 83.952 20.4233 83.952 19.8571C83.952 19.8325 83.952 19.7832 83.952 19.7586C82.4009 19.3893 80.9483 19.0938 79.5942 18.8723C79.5203 19.0938 79.3479 19.2908 79.151 19.4139C79.2002 19.5616 79.2495 19.6847 79.2987 19.8325C79.3479 19.8325 79.3726 19.8325 79.4218 19.8325C79.9881 19.8325 80.4312 20.2756 80.4312 20.8419C80.4312 21.162 80.2835 21.4328 80.0619 21.6297C80.8744 23.2793 82.2039 25.1997 84.272 26.9231C86.1432 25.4705 87.4234 23.2793 87.645 20.7927C87.0788 20.5711 86.4879 20.3987 85.897 20.251ZM76.1719 26.4061C75.8518 26.2338 75.6303 25.8891 75.6303 25.5198C75.6303 25.4213 75.6549 25.3228 75.6795 25.2243C74.4977 24.5842 73.5375 23.8948 72.7989 23.3039C71.5925 22.3437 70.6323 21.3343 69.9922 20.4726C70.2384 24.0918 72.6512 27.1201 75.9257 28.2773C75.9749 27.711 76.0242 27.0709 76.1719 26.4061ZM77.4768 26.0614C77.3045 26.3322 76.9844 26.5046 76.6397 26.5046C76.6151 26.5046 76.5658 26.5046 76.5412 26.5046C76.4181 27.194 76.3443 27.8341 76.3196 28.3757C77.1321 28.6219 77.9692 28.7451 78.8555 28.7451C80.6282 28.7451 82.3024 28.228 83.6811 27.3171C81.3176 27.3171 79.2495 26.7754 77.4768 26.0614ZM87.5712 18.4045C86.1924 17.0011 84.5675 15.9671 83.0656 15.2284C82.8687 15.45 82.5978 15.6224 82.2778 15.6224C81.9085 15.6224 81.5884 15.4254 81.4161 15.13C80.7021 15.4254 79.9881 15.6716 79.3233 15.8686C79.3233 15.8932 79.3233 15.9424 79.3233 15.9671C79.3233 16.4348 79.0279 16.8041 78.6093 16.9272C78.634 17.0996 78.6586 17.2966 78.7078 17.5181C79.2248 17.5428 79.668 17.9613 79.6926 18.4783C81.0468 18.6999 82.524 18.9954 84.0997 19.3893C84.272 19.0692 84.6167 18.8476 84.986 18.8476C85.5523 18.8476 85.9955 19.2908 85.9955 19.8571V19.8817C86.5617 20.0294 87.128 20.2018 87.6943 20.3741C87.6943 20.2264 87.6943 20.0787 87.6943 19.9063C87.7189 19.3893 87.6696 18.8969 87.5712 18.4045ZM83.2872 14.5883C83.2872 14.6868 83.2626 14.7853 83.238 14.8591C84.6413 15.5485 86.0939 16.4841 87.4234 17.7151C86.9803 16.0163 86.0693 14.5144 84.8137 13.3573C84.272 13.702 83.755 13.9974 83.2134 14.2682C83.2626 14.3667 83.2872 14.4898 83.2872 14.5883ZM79.0525 13.2834C79.6926 13.4558 80.5051 13.702 81.4161 14.0467C81.5884 13.7512 81.9085 13.5543 82.2778 13.5543C82.5978 13.5543 82.8687 13.702 83.041 13.9236C83.5334 13.6774 84.0258 13.3819 84.5182 13.0865C82.9918 11.8062 80.9975 11.043 78.8555 11.043C76.9844 11.043 75.261 11.6092 73.833 12.5941C75.3102 12.5448 77.1567 12.791 79.0525 13.2834Z" fill="#A1234F"/>
</g>
<defs>
<clipPath id="clip0_626_37874">
<rect width="17.7267" height="17.7267" fill="white" transform="translate(69.9922 11.043)"/>
</clipPath>
</defs>
</svg>
